<?xml version="1.0" standalone="no"?>
<!DOCTYPE svg PUBLIC "-//W3C//DTD SVG 1.1//EN" "http://www.w3.org/Graphics/SVG/1.1/DTD/svg11.dtd" >
<svg xmlns="http://www.w3.org/2000/svg" xmlns:xlink="http://www.w3.org/1999/xlink" version="1.1">
<metadata></metadata>
<defs>
<font id="uhbee_ramibold" horiz-adv-x="684" >
<font-face units-per-em="2048" ascent="1638" descent="-410" />
<missing-glyph horiz-adv-x="647" />
<glyph horiz-adv-x="0" />
<glyph unicode="&#xd;" horiz-adv-x="550" />
<glyph unicode=" "  horiz-adv-x="647" />
<glyph unicode="&#x09;" horiz-adv-x="647" />
<glyph unicode="&#xa0;" horiz-adv-x="647" />
<glyph unicode="!" horiz-adv-x="511" d="M60 0q0 39 99 99h49q36 0 75 -74q0 -182 -75 -198h-74q-35 0 -74 74v99zM85 495v49q0 99 24 99l-24 173v593q0 36 74 75q203 -75 272 -124q-114 -940 -247 -940h-25q-36 0 -74 75z" />
<glyph unicode="&#x22;" horiz-adv-x="560" d="M60 1360q8 49 49 49t99 -420l-74 -49q-74 82 -74 420zM332 1409l49 25q59 0 99 -470l-49 -24q-74 0 -99 469z" />
<glyph unicode="#" horiz-adv-x="1426" d="M60 346q198 70 198 99q49 199 49 247v25q0 41 -173 74v50q0 49 247 74q25 198 99 198l25 -50v-24l-25 -124l74 -50h322q173 0 173 297h25q49 0 74 -247q148 -50 148 -99q-201 0 -247 -321v-75l74 -49l223 25v-50q0 -49 -322 -99q-86 -247 -123 -247h-25q-50 0 -50 50 l50 173l-50 24h-222l-247 25q-44 -55 -74 -247l-50 -25h-25q-49 0 -49 74q49 81 49 149q-148 95 -148 123zM357 420q99 -74 296 -74q297 0 297 124q49 161 49 222v25q0 42 -148 74q-470 0 -470 -173q0 -62 -24 -198z" />
<glyph unicode="$" horiz-adv-x="832" d="M60 915v173q198 187 198 396h25l123 -198q148 -25 148 -74q0 -50 -74 -50q-48 25 -74 25q-25 -48 -25 -74q0 -421 198 -421q173 -181 173 -346q0 -30 -247 -197q0 -99 -74 -99q-192 222 -247 222l-75 99v74q150 -123 223 -123l25 49v198q0 148 -248 247q0 39 -49 99z M134 989q48 -113 99 -124h25q49 0 49 50v148q0 36 -74 74q-99 -49 -99 -148zM456 371q0 -36 74 -74q123 40 123 148q-61 173 -173 173l-24 -49v-198z" />
<glyph unicode="%" horiz-adv-x="1253" d="M60 767v74q0 38 99 99h124q35 0 74 -75q0 -132 -99 -173h-124q-35 0 -74 75zM134 25v25q582 910 692 989q50 -8 50 -50q-589 -962 -692 -1014q-50 0 -50 50zM876 297v25q0 80 247 98l50 -74v-99q0 -33 -124 -123h-74q-99 40 -99 173zM999 272l50 -25l25 50l-50 25z" />
<glyph unicode="&#x26;" horiz-adv-x="1129" d="M60 322v49q0 182 198 420v50q-173 222 -173 494q79 247 346 247q190 0 247 -271v-25q0 -204 -173 -495q133 -197 272 -197q138 222 173 222h49v-25q0 -51 -148 -321q0 -45 173 -173l25 -50l-74 -49q-188 173 -223 173q-341 -222 -420 -222q-163 0 -272 173zM159 396 q0 -99 148 -149q322 121 322 248q-99 197 -272 197q-107 0 -198 -296zM184 1261q33 -214 148 -346h74q173 154 173 297v74q0 198 -198 198q-197 -65 -197 -223z" />
<glyph unicode="'" horiz-adv-x="264" d="M60 1261l49 25h25q50 -8 50 -50v-222h-50q-55 0 -74 247z" />
<glyph unicode="(" horiz-adv-x="511" d="M60 643v148q0 297 247 520q50 -8 50 -50q-223 -266 -223 -643q55 -277 297 -618q0 -49 -50 -49q-321 298 -321 692z" />
<glyph unicode=")" horiz-adv-x="486" d="M60 1385v24l49 25h25q85 0 272 -593v-421q0 -247 -198 -395q-49 0 -49 49q173 190 173 544q0 246 -272 767z" />
<glyph unicode="*" horiz-adv-x="1055" d="M60 865v50h99q137 -131 247 -173q25 48 25 74q0 69 -25 495l50 24q49 -81 49 -148v-495q0 -49 74 -49q90 8 322 346h74v-74q-272 -294 -272 -396l272 -296v-25q0 -49 -50 -49q-252 271 -371 271l-24 -49q24 -433 24 -544l-49 -25q-49 0 -49 50v420q0 50 -50 50 q-33 0 -247 -248q-36 0 -74 75v24q321 247 321 371z" />
<glyph unicode="+" horiz-adv-x="1253" d="M60 643q8 49 49 49q336 -24 470 -24q8 49 50 49q-50 310 -50 371l50 25q57 0 99 -396q47 -25 74 -25q306 25 321 25l50 -74l-75 -49h-222q-148 0 -148 -174q49 -272 49 -296l-49 -25q-66 0 -99 420l-75 50h-222q-272 0 -272 74z" />
<glyph unicode="," horiz-adv-x="387" d="M60 99q34 102 124 148h49q36 0 74 -74v-99q0 -137 -173 -247l-25 50v49q0 25 25 25q-74 114 -74 148z" />
<glyph unicode="-" d="M60 544q0 65 519 124l25 -50q-77 -79 -519 -123z" />
<glyph unicode="." horiz-adv-x="338" d="M60 0v25q87 148 124 148h24q50 -7 50 -49v-99q0 -36 -74 -74h-75q-49 0 -49 49z" />
<glyph unicode="/" horiz-adv-x="783" d="M60 223q247 340 544 939h49q50 -8 50 -49v-25q-518 -907 -544 -915h-50q-49 0 -49 50z" />
<glyph unicode="0" horiz-adv-x="1203" d="M60 371v173q0 276 494 767h248q321 -85 321 -544q-74 -459 -247 -618q-173 -174 -593 -174q-223 159 -223 396zM134 519q0 -423 247 -445h99q544 116 544 816q-84 322 -272 322h-74q-174 0 -494 -520q0 -74 -50 -173z" />
<glyph unicode="1" d="M60 717v74q158 159 396 520l49 24h25l74 -49l-25 -124v-470q0 -117 -25 -247q25 -92 25 -222v-99q0 -36 -74 -74q0 49 -49 49l49 692q-25 248 -74 248q-36 0 -223 -248l-99 -74h-49z" />
<glyph unicode="2" horiz-adv-x="931" d="M60 1137q233 347 519 347q247 -95 247 -371v-99q0 -230 -321 -544l-49 -99l49 -25h297q49 -7 49 -49v-25l-25 -49l-247 24h-371q-35 0 -74 75q0 34 247 148q371 378 371 643q-121 272 -173 272q-198 0 -470 -297q-49 0 -49 49z" />
<glyph unicode="3" horiz-adv-x="1030" d="M60 198q8 49 49 49q112 -112 272 -123q470 96 470 346q25 98 25 173q-85 222 -247 222h-50q-81 0 -420 -123l-25 49v25q0 43 297 173q247 236 247 396q0 148 -272 222h-49q-52 0 -297 -148v74q28 66 223 173h98q254 0 396 -247v-124q0 -79 -198 -346v-25 q371 -65 371 -296v-50q0 -568 -544 -568q-288 0 -346 148z" />
<glyph unicode="4" horiz-adv-x="1055" d="M60 594q0 43 420 865q8 49 50 49h49q64 0 149 -741q0 -36 74 -75q48 25 74 25q99 -37 99 -74v-25h-99q-148 0 -148 -148v-297q0 -35 -75 -74q0 50 -49 50l25 247v123q0 45 -223 75l-321 -50zM233 692l50 -24h271q36 0 75 74v25q-31 469 -99 469q-203 -175 -297 -544z" />
<glyph unicode="5" horiz-adv-x="1178" d="M60 1508l74 50q495 -25 742 -25l74 -99h-25q-130 0 -222 25l-173 -25q-169 25 -272 25l-50 -74q25 -442 124 -495q186 50 346 50q368 0 420 -470q0 -411 -544 -445q-325 92 -346 173v49h50q196 -123 296 -123q341 0 421 247q24 43 24 99q-62 395 -321 395 q-82 0 -420 -123q-59 0 -198 766z" />
<glyph unicode="6" horiz-adv-x="1228" d="M60 791v198q121 439 470 618q90 50 198 50h24q272 -38 272 -124q0 -49 -49 -49q-91 74 -173 74h-74q-391 0 -569 -643v-99q8 -49 49 -49q312 173 445 173h173q220 0 322 -371q-71 -470 -396 -470q-692 157 -692 692zM233 594q0 -250 519 -396q297 87 297 420 q-115 247 -297 247q-519 -141 -519 -271z" />
<glyph unicode="7" horiz-adv-x="1104" d="M60 1508v25q0 49 74 49q532 -222 865 -271l25 -50v-25q-366 -739 -643 -1063q-35 0 -74 74q362 450 544 915q0 99 -494 198q-297 121 -297 148z" />
<glyph unicode="8" horiz-adv-x="1079" d="M60 1236v248q0 260 396 346q420 0 420 -421q0 -187 -148 -469q271 -133 271 -445q0 -319 -445 -470h-74q-157 0 -296 198v272q0 143 222 395q-346 119 -346 346zM134 1360q0 -371 445 -371h25q173 189 173 371v74q0 297 -297 297q-296 0 -346 -371zM283 346 q0 -222 271 -222q347 147 347 395v50q0 232 -272 296q-346 -179 -346 -395v-124z" />
<glyph unicode="9" horiz-adv-x="1030" d="M60 1137v25q175 470 519 470q303 0 371 -445q-25 -136 -25 -198q25 -176 25 -198q-120 -439 -519 -816q-36 0 -74 75q385 402 395 618l-49 24h-124q-519 51 -519 445zM159 1063q111 -296 470 -296q197 60 197 123v223q0 420 -296 420q-371 -162 -371 -470z" />
<glyph unicode=":" horiz-adv-x="437" d="M60 1236l99 75h25q35 0 74 -75v-197q0 -39 -99 -99h-25q-62 0 -74 296zM134 420q34 102 124 149q74 0 99 -198q-67 -164 -149 -198q-49 60 -74 247z" />
<glyph unicode=";" horiz-adv-x="437" d="M60 1261l49 25h25q74 -25 74 -149q0 -35 -74 -74q-74 105 -74 198zM134 594v24q0 36 74 74h50q99 -33 99 -222q0 -276 -149 -396l-49 75q49 81 49 148v49z" />
<glyph unicode="&#x3c;" horiz-adv-x="906" d="M60 643v49l569 569h49v-25l-445 -544v-24q90 -130 593 -668q0 -35 -74 -74q-250 358 -692 717z" />
<glyph unicode="=" horiz-adv-x="1030" d="M60 742q0 61 668 123q0 25 49 25l49 -74q0 -67 -741 -124zM208 173q0 69 717 99l25 -49q0 -56 -717 -99z" />
<glyph unicode="&#x3e;" horiz-adv-x="857" d="M60 1261q0 36 74 74q643 -692 643 -717v-24l-494 -792h-75v75q367 582 396 741q-73 181 -544 643z" />
<glyph unicode="?" horiz-adv-x="758" d="M60 1360v25q0 81 321 99h173q124 0 124 -371q-16 -91 -445 -594q-35 0 -74 75q395 418 395 568v74q0 149 -148 149h-49l-272 -74zM233 173q0 36 74 74l50 -74q0 -49 -50 -49h-24q-50 0 -50 49z" />
<glyph unicode="@" horiz-adv-x="1623" d="M60 594v197q0 587 643 717h74q643 -123 643 -346q64 0 123 -470q0 -312 -395 -642l-470 -75q-618 85 -618 619zM159 618q0 -358 272 -494l173 -50h148q371 25 371 124q-166 486 -222 494q-151 -370 -297 -370q-223 81 -223 296q35 519 396 519h25q192 0 222 -370 q151 -445 223 -445q113 0 198 395v99q-78 519 -446 519l-222 99q-251 0 -544 -321q-74 -179 -74 -223v-272zM480 618q0 -138 124 -173q163 0 247 445v74q0 36 -74 75q-233 0 -297 -322v-99z" />
<glyph unicode="A" horiz-adv-x="1376" d="M60 940v24q55 44 272 75q49 304 247 766l50 25q134 -135 370 -742q297 -25 297 -74q0 -50 -198 -74l-24 -50q197 -512 197 -618v-148q0 -50 -49 -50q-41 0 -99 396q-171 461 -222 494h-50q-470 0 -470 -222q0 -68 -74 -396q25 -43 25 -99l-74 -49l-50 99q99 504 99 568 q-55 45 -247 75zM456 1088l74 -49h296q50 0 50 49q-159 494 -223 494h-24q-173 -261 -173 -494z" />
<glyph unicode="B" horiz-adv-x="1228" d="M60 1657q176 197 519 197q223 -114 223 -321q0 -155 -74 -346q395 -26 395 -322l25 -98q0 -347 -594 -470q-197 15 -197 74q7 49 49 49q101 -49 148 -49q495 141 495 396q0 321 -321 321l-495 -124q25 -290 25 -420v-148l25 -124l-75 -49q-49 99 -74 99l50 346 q-75 677 -124 989zM159 1582q0 -519 124 -519q420 131 420 371v50q0 246 -198 296q-346 -92 -346 -198z" />
<glyph unicode="C" horiz-adv-x="1302" d="M60 1039q0 478 519 692q13 0 99 25q371 -84 371 -198v-50h-50q-188 149 -321 149q-355 0 -494 -520l-25 -173q30 -544 272 -544q190 -148 297 -148h148q142 0 272 99q35 0 74 -74q-141 -148 -519 -148q-618 217 -618 618q-25 219 -25 272z" />
<glyph unicode="D" horiz-adv-x="1079" d="M60 1681q87 75 297 75h148q494 -90 494 -742q-98 -359 -321 -544q-192 -124 -470 -124h-24q-36 0 -75 74l25 50q0 26 -25 74q0 62 25 198zM159 1558l25 -99q24 -689 24 -890q0 -57 75 -149q308 0 543 396q50 90 50 198v173q-118 470 -396 470h-123q-105 0 -198 -99z" />
<glyph unicode="E" horiz-adv-x="1302" d="M60 1508q87 74 297 74h49q519 0 519 -74l-24 -49l-173 25h-470l-74 -50q27 -569 123 -569q293 43 742 75l49 -75q0 -49 -49 -49q-791 0 -791 -148q25 -253 25 -396v-74q0 -74 98 -74q20 0 792 74l49 -74l-49 -74q-136 24 -198 24q-378 0 -742 -99l-49 75v197 q0 591 -124 1261z" />
<glyph unicode="F" horiz-adv-x="1253" d="M60 322q49 313 49 395l-49 99q74 25 74 148v50q0 352 -74 692l74 50q573 -25 594 -25l395 25l50 -75q-56 -18 -322 -49q-48 25 -74 25q-25 0 -25 -25l-173 25h-296q-62 0 -75 -99q0 -92 25 -618l74 -50h272q118 0 247 -25q92 25 223 25h25q49 -8 49 -49v-25l-25 -49 q-290 24 -420 24h-371q-123 -65 -123 -371l24 -123l-74 -50q-35 0 -74 75z" />
<glyph unicode="G" horiz-adv-x="1549" d="M60 791v198q88 767 519 767h149q214 0 469 -198v-25q0 -49 -49 -49q-305 173 -470 173h-74q-368 0 -470 -693v-24q0 -279 396 -495l247 -25h49q321 0 470 174v247q0 35 -74 74q-59 0 -420 -198h-25q-49 0 -49 50q12 53 395 247q6 49 173 74q74 0 124 -470q49 0 49 -123 q0 -75 -643 -198q-589 0 -766 494z" />
<glyph unicode="H" horiz-adv-x="1302" d="M60 99l25 247q0 284 24 866q-49 347 -49 469l49 25q75 0 75 -321v-173q0 -133 99 -173q173 49 766 98q49 61 49 99q0 85 -49 495l49 25q62 0 124 -643q-25 -169 -25 -272v-594q0 -49 -49 -49h-25l-49 25l24 247v494l-49 75q-865 -66 -865 -174v-741q0 -36 -75 -74 q0 49 -49 49z" />
<glyph unicode="I" horiz-adv-x="1376" d="M60 1582q8 50 49 50h149q709 124 840 124l25 -50v-25q0 -49 -49 -49h-248l-74 -50q118 -463 198 -1359h99q23 0 198 49l49 -74q0 -90 -840 -148h-99q-50 0 -50 49q8 50 50 50h272q197 0 197 222q-96 1187 -197 1187q-291 -25 -421 -25h-99q-49 0 -49 49z" />
<glyph unicode="J" horiz-adv-x="1228" d="M60 1805q0 49 74 49q664 50 791 50q74 -63 124 -519q63 -65 99 -618q0 -517 -346 -643h-223q-331 85 -371 173v49h25q412 -148 445 -148q371 85 371 618q0 418 -223 964h-24q-519 -24 -717 -24z" />
<glyph unicode="K" horiz-adv-x="1351" d="M60 1830l49 24q82 0 99 -321v-173q8 -49 50 -49h74q512 173 618 247h124q49 -8 49 -50q-663 -229 -667 -321q0 -54 791 -668l24 -49v-25q0 -35 -74 -74q-232 276 -371 346q-406 346 -543 346q-25 -48 -25 -74q49 -509 49 -692v-50q0 -49 -49 -49h-25q-49 0 -49 74 q0 75 24 173q-99 1132 -148 1385z" />
<glyph unicode="L" horiz-adv-x="1351" d="M60 1508l49 25q124 0 124 -865q0 -519 223 -519q90 -50 197 -50h544q36 0 74 -74q0 -36 -74 -74q-81 49 -148 49h-371q-519 27 -519 173q0 50 25 50q-75 1121 -124 1285z" />
<glyph unicode="M" horiz-adv-x="1821" d="M60 99q43 1409 124 1409h49q274 -265 445 -618q130 -198 173 -198q23 0 420 866l75 49q166 0 346 -1261q49 -227 49 -272l-74 -49q-36 0 -74 74q0 26 25 74q0 372 -248 1187l-49 25q-102 0 -396 -940h-74q-39 0 -247 371q-254 470 -371 470q-43 -49 -74 -767 q25 -48 25 -74q-25 -130 -25 -148q25 -136 25 -198l-75 -49q0 49 -49 49z" />
<glyph unicode="N" horiz-adv-x="1821" d="M60 0q0 1706 173 1706h50q103 -51 667 -1063q238 -445 272 -445q118 0 371 1088q0 346 99 346q49 -60 49 -99q-54 -48 -99 -544q-49 -86 -321 -989l-99 -74q-74 0 -321 618q-508 835 -618 964q-57 0 -99 -296q-25 -1033 -25 -1138q25 -48 25 -74l-75 -49q0 49 -49 49z " />
<glyph unicode="O" horiz-adv-x="1302" d="M60 1014q0 456 420 643q13 0 99 24q544 -158 544 -395q65 0 99 -198v-371q-159 -519 -618 -519h-25q-420 85 -420 371q-25 0 -99 445zM159 1014q70 -692 420 -692h99q445 109 445 445v296q-117 421 -346 421q0 41 -173 74q-379 0 -445 -544z" />
<glyph unicode="P" horiz-adv-x="1030" d="M60 1681l74 50l99 -50q176 25 198 25q519 0 519 -717v-25q0 -158 -593 -321q-36 0 -74 -74v-272q0 -50 -50 -50q-49 0 -49 50v173q0 275 -124 1211zM184 1484q53 -717 148 -717h99q420 112 420 296q0 519 -420 519q-247 -18 -247 -98z" />
<glyph unicode="Q" horiz-adv-x="1747" d="M60 915q0 454 519 791q134 25 223 25h99q195 0 272 -173q230 0 346 -643q0 -183 -99 -519q0 -45 247 -198v-25l-74 -49q-236 123 -272 123q-301 -222 -420 -222h-124q-668 99 -668 569q-37 0 -49 321zM159 915q0 -512 321 -717l297 -74h25q395 42 395 272 q-198 136 -198 173v25q8 49 50 49q183 -148 272 -148q99 199 99 346q-62 618 -297 618q-275 173 -395 173q-207 0 -470 -371q-99 -208 -99 -346z" />
<glyph unicode="R" horiz-adv-x="1253" d="M60 1533q75 49 396 124h197q99 0 149 -322q0 -332 -223 -519q-25 -43 -25 -99q226 0 619 -494v-99h-75q-296 470 -593 470q0 41 -173 49h-25q-49 -8 -49 -49v-347l25 -173l-75 -49l-74 49l25 124q0 430 -99 1335zM184 1311q0 -520 99 -520q420 92 420 495 q-38 272 -124 272h-74q-321 -62 -321 -247z" />
<glyph unicode="S" horiz-adv-x="1079" d="M60 1286v99q156 197 297 197q267 0 568 -271q74 0 74 -50v-25q0 -49 -49 -49q-405 297 -544 297q-247 0 -247 -198q22 -133 470 -371q296 -297 296 -544v-25q0 -217 -346 -247h-123q-184 0 -371 272v124q218 -297 395 -297h124q222 0 222 198q0 318 -692 717 q-74 90 -74 173z" />
<glyph unicode="T" horiz-adv-x="1426" d="M60 1558v24q8 50 49 50q794 0 1212 49l25 -49q0 -50 -50 -50h-297q-123 0 -148 -98q50 -197 50 -470v-668l24 -296l-74 -50q0 36 -74 74l25 248v692q-20 519 -124 519h-346l-247 -25z" />
<glyph unicode="U" horiz-adv-x="1426" d="M60 1582l49 25q36 0 75 -74v-148q141 -1138 494 -1138q391 0 519 1138q37 247 99 247q8 -50 50 -50q-225 -1310 -371 -1310q-192 -148 -297 -148q-392 0 -519 816q-74 254 -99 642z" />
<glyph unicode="V" horiz-adv-x="1426" d="M60 1632l49 25h25q98 -4 495 -1088h49q298 316 569 1013h49q50 -7 50 -49v-25q-377 -815 -693 -1211q-93 5 -321 791q-18 7 -272 544z" />
<glyph unicode="W" horiz-adv-x="2118" d="M60 1533l49 25q75 0 347 -964q58 -174 98 -174q101 42 371 1064h74q43 -32 248 -668q185 -346 222 -346q122 71 445 1211l74 50l50 -74q-99 -141 -247 -717q-214 -693 -322 -693q-88 0 -470 890h-24q-66 -32 -272 -766q-111 -222 -149 -222h-24q-65 0 -297 840 q-44 92 -173 544z" />
<glyph unicode="X" horiz-adv-x="1475" d="M60 1484v24q0 36 74 74q31 0 618 -494h74q255 329 421 643q49 0 123 99h25v-74l-494 -742v-25q0 -53 445 -445v-25q0 -49 -50 -49h-25q-352 371 -494 371q-47 0 -519 -569q-50 0 -50 50v74q470 447 470 593q-392 393 -618 495z" />
<glyph unicode="Y" horiz-adv-x="1302" d="M60 1632l49 25q334 -458 421 -544q282 203 544 816q12 98 74 98q35 0 74 -74q-346 -583 -346 -667q0 -26 25 -74l-25 -99l99 -866l-50 -24h-24q-50 0 -50 49v99q-29 717 -123 717q-15 0 -149 -148h-49q-470 550 -470 692z" />
<glyph unicode="Z" horiz-adv-x="1450" d="M60 495v24q939 988 939 1063q0 174 -766 174l-25 49q0 37 99 74q866 -107 866 -222v-50q-216 -289 -866 -939q-24 -44 -24 -99q0 -74 939 -124h74q36 0 74 -74l-74 -49q-1215 129 -1236 173z" />
<glyph unicode="[" horiz-adv-x="758" d="M60 865l99 75q346 -18 346 -99l-49 -25q-134 25 -223 25q0 -50 -49 -50l24 -247v-222q0 -198 421 -198l49 -74q-60 -50 -99 -50q-161 50 -222 50h-149q-99 40 -99 173v222q0 223 -49 420z" />
<glyph unicode="]" horiz-adv-x="758" d="M60 841v24q0 75 519 99q44 0 99 -642l-49 -25h-149l-247 -25l-25 50q0 42 346 98v25q0 420 -123 420q-311 -24 -371 -24z" />
<glyph unicode="^" horiz-adv-x="1030" d="M60 767q246 667 321 667h25q118 -83 544 -618q0 -35 -74 -74q-183 289 -445 494h-25q-61 0 -272 -519h-25q-49 0 -49 50z" />
<glyph unicode="_" horiz-adv-x="1203" d="M60 0q0 82 865 149q0 41 173 49l25 -49v-25q0 -74 -1038 -173z" />
<glyph unicode="`" horiz-adv-x="461" d="M60 1162l49 25h25q21 0 247 -297v-49q0 -50 -49 -50q-272 288 -272 371z" />
<glyph unicode="a" horiz-adv-x="1253" d="M60 420v99q87 445 321 445h124q247 0 420 -445q28 0 248 -321l-75 -49q-32 0 -370 494h-25q-34 -2 -149 -321q-176 -173 -247 -173q-198 0 -247 271zM134 420q39 -148 173 -148q215 0 272 420v124q0 36 -74 74h-74q-272 0 -297 -470z" />
<glyph unicode="b" horiz-adv-x="906" d="M60 1657l49 24h50v-24q0 -564 74 -668q190 148 272 148q321 -17 321 -123v-124q0 -213 -395 -470q-164 -74 -223 -74q-49 0 -74 198q25 136 25 198q-99 762 -99 915zM283 544q0 -49 74 -49q371 193 371 420v49q0 36 -75 75h-99q-210 0 -271 -297v-198z" />
<glyph unicode="c" horiz-adv-x="733" d="M60 791q135 371 470 371h49q50 -8 50 -49q0 -36 -322 -99q-173 -195 -173 -272q50 -371 371 -371l124 25l24 -50v-24q0 -50 -49 -50h-50q-494 0 -494 519z" />
<glyph unicode="d" horiz-adv-x="1005" d="M60 742q53 321 321 321q163 -24 322 -24q0 24 25 24q0 31 -124 717l49 25q79 0 198 -1088q74 -74 74 -321q0 -198 -247 -223q-438 0 -593 470zM159 742q91 -470 470 -470h74q35 0 74 74q0 618 -272 618h-124q-222 -32 -222 -222z" />
<glyph unicode="e" horiz-adv-x="1104" d="M60 544v99q52 470 445 470q346 0 346 -297v-222q0 -99 -346 -99h-247q-36 0 -74 -75q0 -287 494 -346h50q142 0 271 99h25v-99q0 -81 -346 -99q-618 56 -618 569zM134 569q25 0 25 -25q81 50 148 50h272q173 0 173 173v49q0 198 -296 198q-322 -74 -322 -445z" />
<glyph unicode="f" horiz-adv-x="1228" d="M60 915q0 49 396 124q0 24 24 24l-24 297v346q0 39 98 99h99q421 -87 421 -396v-24q0 -50 -50 -50q-23 0 -123 272q-178 124 -272 124q-81 -25 -99 -99q24 -270 24 -470v-25q0 -74 99 -74l470 99l25 -49q0 -69 -470 -149q-49 -60 -49 -99q49 -239 148 -370q0 -36 -74 -75 q-91 0 -173 495q-27 0 -74 25l-371 -75z" />
<glyph unicode="g" horiz-adv-x="1007" d="M60 99v149q67 445 495 445h25q272 0 272 -297q17 0 75 -396l-25 -149v-247q0 -67 -322 -124h-74q-322 0 -322 74q8 50 49 50h396q134 0 174 99v99q0 102 25 198q-25 223 -75 223q-23 0 -223 -297l-123 -25h-223q-124 63 -124 198zM134 173q32 -173 174 -173h49 q322 68 322 545q-81 49 -149 49h-74q-322 -80 -322 -421z" />
<glyph unicode="h" horiz-adv-x="1031" d="M60 1510l50 25l49 -74q25 -519 25 -718l49 -25q58 140 223 297h99q343 0 396 -891l-74 -50l-49 75v24q-41 743 -298 743q-135 0 -272 -446v-371q0 -36 -74 -74l-50 74q-24 700 -74 1411z" />
<glyph unicode="i" horiz-adv-x="660" d="M60 1461v25q0 49 74 49q115 -65 421 -124l25 -49q0 -50 -50 -50q-470 70 -470 149zM283 644l25 49q-25 134 -25 223v25q0 36 74 74q25 -25 50 -421l-25 -49l49 -396l-49 -25h-25q-49 0 -49 49v248q0 89 -25 223z" />
<glyph unicode="j" horiz-adv-x="709" d="M60 173v25q8 50 50 50q180 -75 222 -75q174 0 174 99q0 311 -124 694v49h49q117 0 198 -916l-74 -49q-495 69 -495 123zM134 1486v24q8 50 50 50q371 -193 371 -223q0 -49 -49 -49h-25q-124 0 -347 198z" />
<glyph unicode="k" horiz-adv-x="1130" d="M60 1634l50 25q49 -42 173 -842l49 -25q112 0 496 273h49q50 -8 50 -50q-471 -298 -471 -322q16 -99 594 -445v-50q0 -49 -49 -49q-543 371 -644 371l-25 -50v-49q50 -176 50 -198l-74 -50q-58 0 -149 916q-99 371 -99 545z" />
<glyph unicode="l" horiz-adv-x="412" d="M60 1387l50 24q57 0 222 -1213l-74 -49q-62 0 -74 99q0 354 -124 1139z" />
<glyph unicode="m" horiz-adv-x="1378" d="M60 768q95 74 223 74q163 0 346 -272q45 2 223 222q19 0 149 25q297 -130 297 -594l-74 -50q-50 0 -75 322q-61 198 -198 198h-24q-198 -156 -198 -297v-25l24 -123l-74 -50q-29 0 -248 446q-80 49 -123 49q-19 -42 -50 -297l50 -272l-75 -50q-80 0 -123 595 q-50 0 -50 99z" />
<glyph unicode="n" horiz-adv-x="982" d="M60 669q48 24 74 24l124 -24q0 36 173 173h149q132 0 322 -718q0 -36 -74 -74q-93 131 -174 569q-68 99 -173 99q-136 0 -198 -248v-222q0 -83 74 -174q0 -35 -74 -74q-92 83 -124 421q-38 0 -99 248z" />
<glyph unicode="o" horiz-adv-x="833" d="M60 396v149q62 421 347 421q346 0 346 -471v-148q-98 -297 -297 -297h-148q-248 152 -248 346zM159 446q57 -297 248 -297q226 0 272 297q0 396 -198 396q0 25 -74 25q-248 -94 -248 -372v-49z" />
<glyph unicode="p" horiz-adv-x="908" d="M60 817q133 99 446 99q322 -44 322 -272v-223q0 -371 -545 -470q-25 -48 -25 -75q25 -216 25 -247l-74 -50l-50 74q0 27 25 75q0 107 -99 322q25 74 49 74q-24 371 -74 693zM184 718q0 -632 124 -668q445 110 445 445v25q0 297 -272 297q-297 -11 -297 -99z" />
<glyph unicode="q" horiz-adv-x="982" d="M60 223v322q50 272 248 272h396q124 -63 124 -198v-198q0 -390 74 -768q-37 -99 -74 -99q-38 0 -75 99l25 149v49l-49 75q-248 -25 -372 -25q-233 0 -297 322zM134 347q0 -372 322 -372q178 0 297 149q0 619 -247 619h-124q-248 0 -248 -396z" />
<glyph unicode="r" horiz-adv-x="932" d="M60 817h25q66 0 124 -396h24q67 198 595 198l24 -49q0 -50 -49 -50h-273q-272 -59 -272 -371v-124l50 -174l-75 -49q-92 0 -123 619q-50 0 -50 396z" />
<glyph unicode="s" horiz-adv-x="908" d="M60 74v25l248 -74h24q347 57 347 148v50q0 29 -347 272l-123 149v74q148 198 297 198q322 -18 322 -99v-25q-16 0 -322 25q-149 -58 -149 -99v-25q0 -160 396 -346l50 -75v-123q-140 -198 -297 -198h-248q-135 0 -198 123z" />
<glyph unicode="t" horiz-adv-x="1031" d="M60 1040q0 41 446 99l24 50v247q75 0 99 -272l50 -25h223q49 -8 49 -50v-24q0 -50 -74 -50l-99 25l-149 -74q50 -618 124 -842l-74 -50l-74 99q0 842 -124 842l-396 -25z" />
<glyph unicode="u" horiz-adv-x="809" d="M60 768l50 24q49 0 123 -470q64 -124 99 -124q224 0 273 347q7 49 49 49l25 -49v-50q0 -281 -248 -421h-148q-159 45 -223 694zM605 792v25q0 36 74 74l50 -74v-25q0 -35 -75 -74z" />
<glyph unicode="v" horiz-adv-x="858" d="M60 743v49h50q95 -89 222 -470q100 -173 124 -173q50 61 198 569h75q49 -8 49 -49v-25q-99 -91 -272 -768l-50 -25q-74 95 -396 892z" />
<glyph unicode="w" horiz-adv-x="1279" d="M60 718v25h74q102 -111 223 -446l50 -25l148 372l50 25q26 0 297 -446h25q74 0 198 545l49 24q25 -48 25 -74q-172 -743 -248 -743h-24q-41 0 -273 421q-48 25 -74 25q-74 -396 -149 -396q-156 79 -371 693z" />
<glyph unicode="x" horiz-adv-x="957" d="M60 322q223 190 223 297q0 62 -99 173q8 50 49 50h25q140 -149 198 -149l322 248h99v-50q0 -31 -297 -222q-50 -82 -50 -149q0 -63 273 -347q0 -35 -74 -74q-300 347 -347 347q-35 0 -223 -174h-49q-50 0 -50 50z" />
<glyph unicode="y" horiz-adv-x="957" d="M60 -421q421 570 421 644l-421 520q8 49 50 49q29 0 420 -421h50q69 69 223 446h25l49 -74q0 -186 -619 -1090q-34 -102 -124 -148q-35 0 -74 74z" />
<glyph unicode="z" horiz-adv-x="932" d="M60 916q8 50 50 50h49q83 0 124 -25l148 25h198q36 0 75 -75v-24q-372 -471 -372 -520q97 -50 273 -50h198q49 -8 49 -49v-50q0 -49 -74 -49q-51 41 -396 74q-130 -25 -248 -25l-49 74q421 461 421 570l-50 25h-346q-50 0 -50 49z" />
<glyph unicode="{" horiz-adv-x="808" d="M60 569q135 89 198 519q0 94 198 247h49q49 -7 49 -49q-247 -140 -247 -544q213 -618 346 -618q36 0 75 -74v-25q0 -50 -50 -50q-223 0 -420 495q-198 40 -198 99z" />
<glyph unicode="|" horiz-adv-x="338" d="M60 1113l49 24q59 0 99 -469q0 -25 -24 -25l24 -247v-173l50 -173l-74 -50q-36 0 -75 74v25q0 173 25 198q-25 497 -74 816z" />
<glyph unicode="}" horiz-adv-x="709" d="M60 173q246 197 272 322l-25 173l25 222q-83 256 -272 445v50h25q279 0 395 -693q149 0 149 -49v-25q0 -55 -173 -99q-106 -395 -371 -395z" />
<glyph unicode="~" horiz-adv-x="1747" d="M60 0v149q56 543 223 543h148q174 -107 494 -593q207 -173 297 -173q346 143 346 643v123q0 36 74 75l25 -50v-297q-48 -358 -272 -519q-90 -74 -173 -74q-270 0 -618 569q-56 0 -198 173h-99q-99 0 -198 -569h-49z" />
<glyph unicode="&#xa8;" horiz-adv-x="721" d="M60 1263q0 13 14 26l71 72q13 12 25 12q11 0 27 -14l69 -73q10 -14 10 -25q0 -13 -12 -27l-69 -75q-17 -17 -25 -17q-14 0 -25 12l-76 86q-9 12 -9 23zM425 1263q0 13 14 26l71 72q13 12 25 12q11 0 27 -13l69 -74q10 -14 10 -25q0 -13 -12 -26l-69 -76q-17 -17 -25 -17 q-14 0 -25 12l-76 87q-9 11 -9 22z" />
<glyph unicode="&#xa9;" horiz-adv-x="1401" d="M60 594v148q0 267 420 494q41 25 124 25h99q280 -75 568 -445q50 -107 50 -396q-165 -445 -420 -445h-347q-235 0 -469 470zM159 594q170 -520 445 -520h222q322 0 421 495q0 376 -594 593h-49q-445 -128 -445 -494v-74zM431 668v24q0 144 173 223h124q35 0 74 -74v-50 l-173 25q-99 -25 -99 -148q37 -198 173 -198l148 25l25 -50q0 -49 -50 -49h-148q-198 0 -247 272z" />
<glyph unicode="&#xad;" d="M60 544q0 65 519 124l25 -50q-77 -79 -519 -123z" />
<glyph unicode="&#xae;" horiz-adv-x="1599" d="M60 890q20 307 297 594q148 98 222 98h272q519 -148 519 -346q91 0 149 -346q0 -522 -445 -741q-191 -75 -346 -75h-25q-350 0 -594 520zM184 865q0 -512 519 -692h49q322 65 322 149q-143 325 -322 346q-37 -31 -74 -297l-49 -25q0 50 -50 50q25 290 25 420v371 q0 35 74 74h223q59 -14 123 -173q0 -53 -123 -321q71 -151 321 -347q128 0 198 396v49q0 493 -594 594q0 43 -123 49q-304 0 -470 -371q-49 -96 -49 -272zM703 915q8 -50 49 -50h50q99 41 99 174v49q0 36 -75 74h-49q-36 0 -74 -74v-173z" />
<glyph unicode="&#xb4;" horiz-adv-x="601" d="M60 1078l291 297q35 35 55.5 47t40.5 12q33 0 53.5 -20t20.5 -51q0 -22 -15.5 -42t-46.5 -40l-330 -203h-69z" />
<glyph unicode="&#xb8;" horiz-adv-x="548" d="M60 -290q85 -52 152 -52q66 0 94.5 21.5t28.5 66.5t-49 64q-40 16 -102 16q-16 0 -34 -2l48 176h63l-37 -104q32 4 62 5q86 0 134 -40.5t48 -113.5q0 -76 -58.5 -120.5t-160.5 -44.5q-109 0 -189 32v96z" />
<glyph unicode="&#x2c6;" horiz-adv-x="722" d="M60 1079l232 355h118l232 -355h-58l-233 216l-233 -216h-58z" />
<glyph unicode="&#x2dc;" horiz-adv-x="714" d="M60 1132q19 106 68 158.5t129 52.5q46 -1 113 -24q64 -23 112 -23h4q36 0 58 20t36 66h54q-20 -103 -68.5 -154t-126.5 -51h-4q-50 0 -113 23q-66 24 -114 24q-39 0 -60.5 -20.5t-33.5 -71.5h-54z" />
<glyph unicode="&#x2000;" horiz-adv-x="1013" />
<glyph unicode="&#x2001;" horiz-adv-x="2027" />
<glyph unicode="&#x2002;" horiz-adv-x="1013" />
<glyph unicode="&#x2003;" horiz-adv-x="2027" />
<glyph unicode="&#x2004;" horiz-adv-x="675" />
<glyph unicode="&#x2005;" horiz-adv-x="506" />
<glyph unicode="&#x2006;" horiz-adv-x="337" />
<glyph unicode="&#x2007;" horiz-adv-x="337" />
<glyph unicode="&#x2008;" horiz-adv-x="253" />
<glyph unicode="&#x2009;" horiz-adv-x="405" />
<glyph unicode="&#x200a;" horiz-adv-x="112" />
<glyph unicode="&#x2010;" d="M60 544q0 65 519 124l25 -50q-77 -79 -519 -123z" />
<glyph unicode="&#x2011;" d="M60 544q0 65 519 124l25 -50q-77 -79 -519 -123z" />
<glyph unicode="&#x2012;" d="M60 544q0 65 519 124l25 -50q-77 -79 -519 -123z" />
<glyph unicode="&#x2013;" horiz-adv-x="1164" d="M60 544q0 65 977 124l47 -50q-145 -79 -977 -123z" />
<glyph unicode="&#x2014;" horiz-adv-x="2188" d="M60 544q0 65 1954 124l94 -50q-290 -79 -1954 -123z" />
<glyph unicode="&#x2018;" horiz-adv-x="387" d="M60 1494v99q0 137 173 247l24 -50v-49q0 -25 -24 -25q74 -114 74 -148q-34 -102 -124 -148h-49q-36 0 -74 74z" />
<glyph unicode="&#x2019;" horiz-adv-x="387" d="M60 1692q34 102 124 148h49q36 0 74 -74v-99q0 -137 -173 -247l-24 50v49q0 25 24 25q-74 114 -74 148z" />
<glyph unicode="&#x201c;" horiz-adv-x="733" d="M60 1494v99q0 137 173 247l24 -50v-49q0 -25 -24 -25q74 -114 74 -148q-34 -102 -124 -148h-49q-36 0 -74 74zM406 1494v99q0 137 173 247l24 -50v-49q0 -25 -24 -25q74 -114 74 -148q-34 -102 -124 -148h-49q-36 0 -74 74z" />
<glyph unicode="&#x201d;" horiz-adv-x="733" d="M60 1692q34 102 124 148h49q36 0 74 -74v-99q0 -137 -173 -247l-24 50v49q0 25 24 25q-74 114 -74 148zM406 1692q34 102 124 148h49q36 0 74 -74v-99q0 -137 -173 -247l-24 50v49q0 25 24 25q-74 114 -74 148z" />
<glyph unicode="&#x2022;" horiz-adv-x="610" d="M60 470v124q168 247 371 247q38 0 99 -99v-198q0 -371 -247 -371q-165 0 -223 297z" />
<glyph unicode="&#x2026;" horiz-adv-x="1200" d="M85 58l12 21q149 85 181 67l22 -13q39 -30 18 -67l-50 -86q-18 -31 -101 -27l-64 37q-43 25 -18 68zM475 58l13 21q149 85 181 67l22 -13q39 -30 18 -67l-50 -86q-18 -31 -101 -27l-64 37q-43 25 -19 68zM866 58l12 21q149 85 182 67l21 -13q39 -30 18 -67l-49 -86 q-18 -31 -101 -27l-65 37q-43 25 -18 68z" />
<glyph unicode="&#x202f;" horiz-adv-x="405" />
<glyph unicode="&#x205f;" horiz-adv-x="506" />
<glyph unicode="&#x2122;" horiz-adv-x="1203" d="M60 1162v50q0 41 420 99q15 0 346 -198q109 198 149 198h24q39 0 99 -99v-198l25 -173l-49 -25h-25q-50 0 -74 247h-25q-92 -130 -247 -148q0 -173 -74 -173q-50 420 -124 420h-99q-35 0 -74 -74v-297q0 -49 -49 -49q-50 0 -50 49v272q0 56 -173 99z" />
<glyph unicode="&#x25fc;" horiz-adv-x="940" d="M0 0v940h940v-940h-940z" />
</font>
</defs>
</svg>
